<?xml version="1.0" encoding="utf-8"?>
<!-- Generator: Adobe Illustrator 16.0.0, SVG Export Plug-In . SVG Version: 6.00 Build 0)  -->
<!DOCTYPE svg PUBLIC "-//W3C//DTD SVG 1.1//EN" "http://www.w3.org/Graphics/SVG/1.1/DTD/svg11.dtd">
<svg version="1.1" id="圖層_1" xmlns="http://www.w3.org/2000/svg" xmlns:xlink="http://www.w3.org/1999/xlink" x="0px" y="0px"
	 width="217.949px" height="216.667px" viewBox="0 0 217.949 216.667" enable-background="new 0 0 217.949 216.667"
	 xml:space="preserve">
<path fill-rule="evenodd" clip-rule="evenodd" fill="#1F4495" d="M109.063,209.044C51.961,208.918,6.045,162.865,6.199,105.873
	C6.352,48.934,52.672,3.048,109.702,3.34c56.93,0.292,102.662,46.163,102.611,102.922
	C212.262,163.238,166.121,209.171,109.063,209.044z M18.141,106.022c-0.883,46.045,36.984,91.236,91.178,91.339
	c51.519,0.097,91.328-42.632,91.111-91.101c-0.224-50.299-40.773-91.182-91.06-91.286C59.164,14.872,18.243,55.711,18.141,106.022z"
	/>
<path fill-rule="evenodd" clip-rule="evenodd" fill="#FFFFFF" d="M18.141,106.022c0.102-50.312,41.023-91.151,91.229-91.047
	c50.286,0.104,90.836,40.986,91.06,91.286c0.217,48.469-39.593,91.197-91.111,91.101C55.125,197.259,17.258,152.067,18.141,106.022z
	 M103.182,45.865c-10.374-0.086-20.749-0.177-31.123-0.249c-0.954-0.006-2.055-0.151-2.281,1.24
	c-0.103,5.643-0.127,11.288-0.34,16.927c-0.11,2.908,1.323,7.494-0.728,8.316c-2.549,1.022-5.007-2.944-7.289-4.876
	c-2.203-1.866-3.227-1.308-4.827,0.372c-3.21,3.371-6.563,6.606-9.835,9.918c-0.785,0.795-2.35,1.657-1.718,2.733
	c1.495,2.546,3.059,5.335,5.329,7.06c2.133,1.62,3.748-1.154,5.382-2.416c1.052-0.813,2.057-1.688,3.06-2.561
	c0.845-0.736,1.709-1.089,2.586-0.12c3.859,4.269,10.817,6.82,8.109,14.747c-0.341,0.998-0.167,2.171-0.252,3.615
	c-1.511-1.023-2.781-1.384-3.924-2.444c-5.901-5.47-5.976-5.393-11.874,0.427c-1.302,1.285-2.586,2.587-3.879,3.879
	c-5.216,5.213-5.108,5.136-0.901,11.078c1.655,2.338,2.901,3.412,5.174,0.811c3.774-4.321,7.68-6.846,11.73-0.237
	c0.165,0.269,0.526,0.644,0.749,0.614c3.835-0.5,3.131,2.23,3.124,4.397c-0.004,1.491-0.153,2.983-0.237,4.475
	c-6.644,0.053-13.288,0.106-19.932,0.159c-2.09,3.135-0.494,6.633-0.974,9.927c-0.372,2.548,1.01,3.042,3.232,2.989
	c4.826-0.115,9.657-0.084,14.483,0.002c1.171,0.021,3.27-0.709,3.242,1.194c-0.066,4.528,1.406,9.208-0.951,13.579
	c-0.38-0.001-0.761-0.002-1.142-0.002c-0.948-0.445-1.896-0.443-2.844-0.002c-0.724,0-1.448,0-2.172,0c-0.609,0-1.219,0-1.828,0
	c-0.724,0-1.448,0-2.172,0c-0.609,0-1.218,0-1.828,0c-0.724,0-1.448,0-2.172,0c-0.607,0-1.214,0-1.822,0
	c-1.004,0.012-2.008,0.021-3.012,0.032c-2.048,2.003-0.587,4.534-1.014,6.783c-0.879,4.636,0.702,6.222,5.721,6.091
	c14.647-0.381,29.316-0.358,43.964-0.01c4.883,0.117,6.277-1.222,5.975-6.049c-0.514-8.209,0.977-7.092-7.212-7.201
	c-2.332-0.031-4.664,0.02-6.995-0.01c-8.29-0.101-7.09,0.94-7.155-7.158c-0.058-7.285-0.012-7.285,7.449-7.285
	c1.499,0,2.998,0,4.497,0c9.917,0,9.8,0.006,9.382-9.924c-0.115-2.742-1.116-3.357-3.586-3.279
	c-4.659,0.148-9.327,0.082-13.989,0.017c-1.369-0.02-3.378,0.669-3.618-1.515c-0.204-1.855-0.942-4.054,1.176-5.491
	c2.202-1.494,4.608-2.753,6.584-4.501c2.911-2.576,5.168-2.207,7.131,0.92c1.732,2.758,3.267,1.997,4.945-0.037
	c0.843-1.021,1.816-1.953,2.817-2.828c1.664-1.451,2.414-2.279,0.232-4.488c-2.984-3.021-5.923-6.227-8.56-9.518
	c-2.242-2.798-3.25-1.931-5.404-0.574c-2.828,1.781-5.261,4.377-8.519,5.109c-2.302-7.792,0.02-13.208,7.318-16.247
	c0.299-0.125,0.575-0.342,0.817-0.563c2.076-1.893,4.017-2.187,5.586,0.559c2.227,3.896,4.069,2.405,6.589,0.034
	c3.391-3.191,5.428-5.69-0.118-8.69c-1.307-0.707-1.878-2.684-2.939-3.949c-5.261-6.274-5.276-6.256-11.917-1.848
	c-1.8,1.195-3.618,2.361-5.428,3.541c-0.107-3.644-0.106-7.294-0.356-10.928c-0.191-2.771,0.754-3.791,3.629-3.708
	c5.302,0.155,10.615-0.061,15.923-0.123c0.317-0.05,0.635-0.1,0.952-0.15C104.482,54.24,104.513,50.052,103.182,45.865z
	 M113.436,85.623c0.004,0.646,0.277,0.891,0.904,0.604c16.344-0.039,32.687-0.077,49.029-0.116c0.967-0.337,1.083-1.135,1.078-1.995
	c-0.07-12.472-0.141-24.945-0.212-37.417c-0.087-0.807-0.612-1.073-1.339-1.074c-15.768-0.006-31.534,0.019-47.301-0.053
	c-2.12-0.01-2.414,0.978-2.397,2.729C113.311,60.742,113.364,73.182,113.436,85.623z M132.178,151.423
	c-1.393-1.073-4.574,0.897-4.564-2.252c0.014-3.836-0.965-7.77,0.654-11.523c10.827,0.033,21.655,0,32.48,0.148
	c2.6,0.035,3.824-0.372,3.777-3.435c-0.178-11.825-0.113-23.655-0.035-35.482c0.016-2.179-0.277-3.286-2.913-3.265
	c-15.159,0.12-30.319,0.088-45.478,0.023c-2.051-0.009-2.805,0.456-2.953,2.725c-0.755,11.556-0.84,11.552,10.589,11.526
	c1.165-0.003,2.331-0.039,3.497-0.06c0.665,4.593,0.67,9.186-0.002,13.778c-3.807-0.024-7.629,0.152-11.416-0.136
	c-3.089-0.234-3.92,0.777-3.867,3.847c0.188,10.924,0.037,21.853,0.122,32.779c0.01,1.271-0.954,3.093,1.219,3.753
	c16.308,0.557,32.614,0.548,48.922,0.003c0.884,0.183,1.176-0.382,1.362-1.079c1.654-3.361,1.137-6.783,0.293-10.216
	c-0.737-2.021-2.285-1.39-3.719-1.137c-0.605,0-1.211-0.001-1.816-0.001c-0.723,0-1.446,0-2.169,0c-0.61,0-1.221,0-1.831,0
	c-0.723,0-1.445,0-2.169,0c-0.948-0.442-1.896-0.442-2.845,0.001c-0.379,0-0.76,0-1.139,0.001c-0.953-0.445-1.907-0.443-2.861-0.001
	c-0.379,0-0.76,0-1.139,0.001c-0.953-0.445-1.907-0.443-2.861-0.001c-0.379,0-0.76,0-1.139,0.001
	c-0.953-0.445-1.907-0.443-2.861-0.001c-0.379,0-0.76,0-1.139,0.001c-0.953-0.445-1.907-0.443-2.861-0.001
	C132.938,151.422,132.557,151.423,132.178,151.423z"/>
<path fill-rule="evenodd" clip-rule="evenodd" fill="#E5242D" d="M69.217,123.572c0.084-1.491,0.232-2.983,0.237-4.475
	c0.007-2.167,0.711-4.897-3.124-4.397c-0.223,0.029-0.584-0.346-0.749-0.614c-4.05-6.608-7.956-4.084-11.73,0.237
	c-2.273,2.602-3.52,1.527-5.174-0.811c-4.207-5.942-4.314-5.865,0.901-11.078c1.293-1.292,2.578-2.595,3.879-3.879
	c5.897-5.82,5.973-5.897,11.874-0.427c1.144,1.06,2.413,1.421,3.924,2.444c0.085-1.443-0.089-2.617,0.252-3.615
	c2.708-7.927-4.25-10.479-8.109-14.747c-0.876-0.969-1.741-0.616-2.586,0.12c-1.003,0.874-2.008,1.749-3.06,2.561
	c-1.634,1.262-3.249,4.036-5.382,2.416c-2.27-1.725-3.833-4.514-5.329-7.06c-0.632-1.076,0.933-1.938,1.718-2.733
	c3.272-3.313,6.625-6.548,9.835-9.918c1.6-1.68,2.624-2.238,4.827-0.372c2.281,1.932,4.74,5.898,7.289,4.876
	c2.05-0.823,0.618-5.408,0.728-8.316c0.212-5.639,0.237-11.284,0.341-16.927c11.072,0.155,22.173-1.086,33.212,0.678
	c0.071,3.632,0.142,7.265,0.213,10.896c-0.317,0.05-0.635,0.101-0.952,0.15c-6.782-0.95-13.56-1.774-20.268,0.468
	c-1.202,4.442-1.144,8.887-0.029,13.335c0.223,0.484,0.347,1.083,1.101,0.955c1.81-1.18,3.628-2.346,5.428-3.541
	c6.641-4.408,6.657-4.427,11.917,1.848c1.062,1.266,1.633,3.242,2.939,3.949c5.546,3,3.509,5.5,0.118,8.69
	c-2.52,2.371-4.362,3.861-6.589-0.034c-1.569-2.746-3.511-2.452-5.586-0.559c-0.243,0.222-0.518,0.438-0.817,0.563
	c-7.298,3.039-9.621,8.455-7.318,16.247c3.257-0.731,5.69-3.328,8.519-5.109c2.154-1.357,3.162-2.225,5.404,0.574
	c2.637,3.291,5.576,6.497,8.56,9.518c2.182,2.208,1.432,3.037-0.232,4.488c-1,0.875-1.974,1.807-2.817,2.828
	c-1.678,2.034-3.213,2.795-4.945,0.037c-1.963-3.127-4.22-3.496-7.131-0.92c-1.976,1.748-4.382,3.007-6.584,4.501
	c-2.119,1.438-1.38,3.636-1.176,5.491c0.24,2.184,2.25,1.495,3.618,1.515c4.663,0.065,9.33,0.132,13.989-0.017
	c2.47-0.078,3.471,0.537,3.586,3.279c0.418,9.93,0.535,9.924-9.382,9.924c-1.499,0-2.998,0-4.497,0c-7.461,0-7.507,0-7.449,7.285
	c0.064,8.099-1.135,7.058,7.155,7.158c2.331,0.029,4.664-0.021,6.995,0.01c8.188,0.109,6.698-1.008,7.212,7.201
	c0.302,4.827-1.092,6.166-5.975,6.049c-14.648-0.349-29.317-0.371-43.964,0.01c-5.019,0.131-6.6-1.455-5.721-6.091
	c0.427-2.249-1.034-4.78,1.014-6.783c1.017,1.245,2.02,1.099,3.012-0.032c0.607,0,1.215,0,1.822,0c0.724,0.814,1.448,0.826,2.172,0
	c0.609,0,1.219,0,1.828,0c0.724,0.814,1.448,0.826,2.172,0c0.609,0,1.219,0,1.828,0c0.724,0.814,1.448,0.826,2.172,0
	c0.948-0.441,1.896-0.443,2.844,0.002c0.381,0,0.761,0.001,1.142,0.002c2.356-4.371,0.885-9.051,0.951-13.579
	c0.027-1.903-2.071-1.173-3.242-1.194c-4.827-0.086-9.658-0.117-14.483-0.002c-2.222,0.053-3.604-0.441-3.232-2.989
	c0.48-3.294-1.116-6.792,0.974-9.927C55.941,125.245,62.588,125.464,69.217,123.572z"/>
<path fill-rule="evenodd" clip-rule="evenodd" fill="#E5232C" d="M137.317,151.422c0.954-0.442,1.908-0.444,2.861,0.001
	c0.379-0.001,0.76-0.001,1.139-0.001c0.954-0.442,1.908-0.444,2.861,0.001c0.379-0.001,0.76-0.001,1.139-0.001
	c0.954-0.442,1.908-0.444,2.861,0.001c0.379-0.001,0.76-0.001,1.139-0.001c0.949-0.443,1.896-0.443,2.845,0
	c0.724,0.812,1.446,0.823,2.169-0.001c0.61,0,1.221,0,1.831,0c0.724,0.813,1.446,0.824,2.169,0c0.605,0,1.211,0.001,1.816,0.001
	c1.036,1.046,2.344,1.2,3.719,1.137c0.844,3.433,1.361,6.854-0.293,10.216c-0.454,0.359-0.908,0.719-1.362,1.079
	c-16.308,0.545-32.614,0.554-48.922-0.003c-0.008-11.406,0.073-22.813-0.075-34.218c-0.047-3.577,1.143-5.069,4.855-5.015
	c3.048,0.045,6.301,0.973,9.162-1.011c0.672-4.593,0.667-9.186,0.002-13.778c-2.52-1.945-5.484-1.203-8.203-1.055
	c-4.847,0.266-4.797-2.674-4.814-6.097c-0.018-3.473,0.064-6.128,4.856-6.044c13.135,0.23,26.277,0.14,39.415,0.037
	c3.307-0.026,4.863,0.987,4.814,4.553c-0.14,10.309-0.139,20.624,0,30.934c0.048,3.553-1.485,4.619-4.805,4.566
	c-8.146-0.129-16.299-0.061-24.447-0.022c-1.963,0.009-4.023-0.395-5.781,0.946c-1.619,3.754-0.641,7.688-0.654,11.523
	c-0.01,3.149,3.172,1.179,4.564,2.252c0.379,0,0.76-0.001,1.139-0.001c0.954-0.442,1.908-0.444,2.861,0.001
	C136.557,151.422,136.938,151.422,137.317,151.422z M139.353,117.444c0.87,2.469-2.378,7.465,4.417,7.176
	c8.493-0.362,9.217-0.682,9.164-7.406c-0.064-8.168,1.043-7.291-6.959-7.308C138.322,109.892,139.454,109.228,139.353,117.444z"/>
<path fill-rule="evenodd" clip-rule="evenodd" fill="#E5212A" d="M163.371,86.11c-16.344,0.039-32.687,0.077-49.03,0.116
	c0.021-0.264-0.016-0.52-0.113-0.766c0.01-10.987,0.227-21.98-0.066-32.959c-0.126-4.733,1.631-5.96,6.088-5.889
	c14.313,0.229,28.633,0.102,42.949,0.112C163.255,59.852,163.313,72.981,163.371,86.11z M126.3,58.815
	c-0.011,1.162-0.03,2.323-0.032,3.485c-0.015,11.017-0.012,11.136,11.099,10.959c4.569-0.073,10.655,2.146,13.309-1.001
	c2.532-3.005,0.738-8.906,0.576-13.537C142.928,57.093,134.611,56.963,126.3,58.815z"/>
<path fill-rule="evenodd" clip-rule="evenodd" fill="#DD000F" d="M128.268,137.647c1.758-1.341,3.818-0.938,5.781-0.946
	c8.148-0.038,16.301-0.106,24.447,0.022c3.319,0.053,4.853-1.014,4.805-4.566c-0.139-10.311-0.14-20.625,0-30.934
	c0.049-3.566-1.508-4.579-4.814-4.553c-13.138,0.103-26.28,0.193-39.415-0.037c-4.792-0.084-4.874,2.571-4.856,6.044
	c0.018,3.423-0.032,6.363,4.814,6.097c2.719-0.148,5.684-0.891,8.203,1.055c-1.166,0.021-2.332,0.057-3.497,0.06
	c-11.429,0.026-11.344,0.03-10.589-11.526c0.148-2.269,0.902-2.734,2.953-2.725c15.158,0.065,30.318,0.096,45.478-0.023
	c2.636-0.021,2.929,1.086,2.913,3.265c-0.078,11.827-0.143,23.657,0.035,35.482c0.047,3.063-1.178,3.47-3.777,3.435
	C149.923,137.647,139.095,137.681,128.268,137.647z"/>
<path fill-rule="evenodd" clip-rule="evenodd" fill="#DC000F" d="M163.198,46.723c-14.316-0.01-28.637,0.118-42.949-0.112
	c-4.457-0.071-6.214,1.156-6.088,5.889c0.293,10.979,0.076,21.972,0.066,32.96c-0.262,0.065-0.525,0.119-0.791,0.162
	c-0.072-12.44-0.125-24.881-0.237-37.321c-0.017-1.752,0.277-2.739,2.397-2.729c15.767,0.072,31.533,0.046,47.301,0.053
	c0.727,0,1.252,0.267,1.339,1.074C163.889,46.707,163.543,46.715,163.198,46.723z"/>
<path fill-rule="evenodd" clip-rule="evenodd" fill="#E40013" d="M127.231,123.607c-2.861,1.983-6.114,1.056-9.162,1.011
	c-3.713-0.055-4.902,1.438-4.855,5.015c0.148,11.404,0.067,22.812,0.075,34.218c-2.173-0.66-1.209-2.481-1.219-3.753
	c-0.085-10.927,0.065-21.855-0.122-32.779c-0.053-3.069,0.778-4.081,3.867-3.847C119.602,123.76,123.424,123.583,127.231,123.607z"
	/>
<path fill-rule="evenodd" clip-rule="evenodd" fill="#E40013" d="M163.198,46.723c0.346-0.008,0.691-0.017,1.038-0.024
	c0.071,12.472,0.142,24.945,0.212,37.417c0.005,0.859-0.111,1.658-1.078,1.995C163.313,72.981,163.255,59.852,163.198,46.723z"/>
<path fill-rule="evenodd" clip-rule="evenodd" fill="#DC444B" d="M81.985,59.049c6.708-2.242,13.486-1.417,20.268-0.468
	c-5.309,0.062-10.622,0.277-15.924,0.123c-2.875-0.083-3.821,0.937-3.629,3.708c0.25,3.633,0.25,7.284,0.356,10.928
	c-0.754,0.128-0.877-0.471-1.101-0.955C81.966,67.94,81.975,63.495,81.985,59.049z"/>
<path fill-rule="evenodd" clip-rule="evenodd" fill="#DC000F" d="M102.991,47.535c-11.04-1.764-22.14-0.522-33.212-0.678
	c0.226-1.392,1.327-1.247,2.28-1.24c10.375,0.071,20.749,0.163,31.123,0.249C103.119,46.422,103.055,46.978,102.991,47.535z"/>
<path fill-rule="evenodd" clip-rule="evenodd" fill="#E40013" d="M69.217,123.572c-6.629,1.892-13.276,1.673-19.932,0.159
	C55.929,123.679,62.573,123.625,69.217,123.572z"/>
<path fill-rule="evenodd" clip-rule="evenodd" fill="#DC444B" d="M102.991,47.535c0.063-0.557,0.127-1.113,0.191-1.669
	c1.331,4.187,1.3,8.375,0.022,12.566C103.133,54.799,103.062,51.167,102.991,47.535z"/>
<path fill-rule="evenodd" clip-rule="evenodd" fill="#E6131F" d="M52.338,151.419c-0.992,1.131-1.995,1.277-3.012,0.032
	C50.33,151.44,51.334,151.431,52.338,151.419z"/>
<path fill-rule="evenodd" clip-rule="evenodd" fill="#E6131F" d="M163.866,152.559c-1.375,0.063-2.683-0.091-3.719-1.137
	C161.581,151.169,163.128,150.537,163.866,152.559z"/>
<path fill-rule="evenodd" clip-rule="evenodd" fill="#E6131F" d="M56.332,151.419c-0.724,0.826-1.448,0.814-2.172,0
	C54.884,151.419,55.608,151.419,56.332,151.419z"/>
<path fill-rule="evenodd" clip-rule="evenodd" fill="#E6131F" d="M60.332,151.419c-0.724,0.826-1.448,0.814-2.172,0
	C58.884,151.419,59.608,151.419,60.332,151.419z"/>
<path fill-rule="evenodd" clip-rule="evenodd" fill="#E6131F" d="M64.332,151.419c-0.724,0.826-1.448,0.814-2.172,0
	C62.884,151.419,63.608,151.419,64.332,151.419z"/>
<path fill-rule="evenodd" clip-rule="evenodd" fill="#E6131F" d="M154.331,151.421c-0.723,0.824-1.445,0.813-2.169,0.001
	C152.885,151.421,153.608,151.421,154.331,151.421z"/>
<path fill-rule="evenodd" clip-rule="evenodd" fill="#E6131F" d="M158.331,151.421c-0.723,0.824-1.445,0.813-2.169,0
	C156.884,151.421,157.608,151.421,158.331,151.421z"/>
<path fill-rule="evenodd" clip-rule="evenodd" fill="#E6454C" d="M113.436,85.623c0.266-0.043,0.529-0.097,0.791-0.162
	c0.098,0.246,0.135,0.501,0.113,0.765C113.713,86.513,113.44,86.269,113.436,85.623z"/>
<path fill-rule="evenodd" clip-rule="evenodd" fill="#E6131F" d="M68.318,151.423c-0.381-0.001-0.761-0.002-1.142-0.002
	C67.557,151.421,67.938,151.422,68.318,151.423z"/>
<path fill-rule="evenodd" clip-rule="evenodd" fill="#E6131F" d="M133.317,151.422c-0.379,0-0.76,0.001-1.139,0.001
	C132.557,151.423,132.938,151.422,133.317,151.422z"/>
<path fill-rule="evenodd" clip-rule="evenodd" fill="#E6131F" d="M137.317,151.422c-0.379,0-0.76,0-1.139,0.001
	C136.557,151.422,136.938,151.422,137.317,151.422z"/>
<path fill-rule="evenodd" clip-rule="evenodd" fill="#E6131F" d="M141.317,151.422c-0.379,0-0.76,0-1.139,0.001
	C140.557,151.422,140.938,151.422,141.317,151.422z"/>
<path fill-rule="evenodd" clip-rule="evenodd" fill="#E6131F" d="M145.317,151.422c-0.379,0-0.76,0-1.139,0.001
	C144.557,151.422,144.938,151.422,145.317,151.422z"/>
<path fill-rule="evenodd" clip-rule="evenodd" fill="#E6131F" d="M149.317,151.422c-0.379,0-0.76,0-1.139,0.001
	C148.557,151.422,148.938,151.422,149.317,151.422z"/>
<path fill-rule="evenodd" clip-rule="evenodd" fill="#E50D1B" d="M162.21,163.854c0.454-0.36,0.908-0.72,1.362-1.079
	C163.386,163.472,163.094,164.036,162.21,163.854z"/>
<path fill-rule="evenodd" clip-rule="evenodd" fill="#E40013" d="M81.985,59.049c-0.01,4.445-0.019,8.891-0.029,13.335
	C80.841,67.937,80.783,63.492,81.985,59.049z"/>
<path fill-rule="evenodd" clip-rule="evenodd" fill="#F9E9EA" d="M139.353,117.444c0.101-8.217-1.031-7.553,6.622-7.538
	c8.002,0.017,6.895-0.86,6.959,7.308c0.053,6.725-0.671,7.044-9.164,7.406C136.975,124.909,140.223,119.913,139.353,117.444z"/>
<path fill-rule="evenodd" clip-rule="evenodd" fill="#FCF7F7" d="M151.251,58.72c0.162,4.631,1.956,10.532-0.576,13.537
	c-2.653,3.148-8.739,0.928-13.309,1.001c-11.11,0.177-11.113,0.058-11.099-10.959c0.002-1.162,0.021-2.323,0.032-3.485
	C134.618,58.784,142.934,58.752,151.251,58.72z"/>
<path fill-rule="evenodd" clip-rule="evenodd" fill="#D82028" d="M151.251,58.72c-8.317,0.032-16.634,0.063-24.951,0.095
	C134.611,56.963,142.928,57.093,151.251,58.72z"/>
</svg>
